<svg width="257" height="149" viewBox="0 0 257 149" fill="none" xmlns="http://www.w3.org/2000/svg">
<path d="M44.3949 137.06C45.3249 137.06 46.0539 137.318 46.5819 137.834C47.1159 138.344 47.3829 139.076 47.3829 140.03C47.3829 140.984 47.1159 141.719 46.5819 142.235C46.0539 142.745 45.3249 143 44.3949 143H42.4779V137.06H44.3949ZM44.4669 142.325C45.1449 142.325 45.6729 142.124 46.0509 141.722C46.4349 141.314 46.6269 140.75 46.6269 140.03C46.6269 139.31 46.4349 138.749 46.0509 138.347C45.6729 137.939 45.1449 137.735 44.4669 137.735H43.1979V142.325H44.4669ZM53.9142 137.06C54.5202 137.06 55.0062 137.216 55.3722 137.528C55.7382 137.84 55.9212 138.263 55.9212 138.797C55.9212 139.223 55.8012 139.574 55.5612 139.85C55.3212 140.126 54.9972 140.315 54.5892 140.417L56.2812 143H55.4262L53.8062 140.534H52.3842V143H51.6642V137.06H53.9142ZM53.9052 139.859C54.7452 139.859 55.1652 139.505 55.1652 138.797C55.1652 138.089 54.7452 137.735 53.9052 137.735H52.3842V139.859H53.9052ZM62.6908 136.97C63.2548 136.97 63.7408 137.096 64.1488 137.348C64.5628 137.594 64.8808 137.945 65.1028 138.401C65.3308 138.857 65.4448 139.4 65.4448 140.03C65.4448 140.66 65.3308 141.203 65.1028 141.659C64.8808 142.115 64.5628 142.469 64.1488 142.721C63.7408 142.967 63.2548 143.09 62.6908 143.09C62.1268 143.09 61.6378 142.967 61.2238 142.721C60.8158 142.469 60.4978 142.115 60.2698 141.659C60.0478 141.203 59.9368 140.66 59.9368 140.03C59.9368 139.4 60.0478 138.857 60.2698 138.401C60.4978 137.945 60.8158 137.594 61.2238 137.348C61.6378 137.096 62.1268 136.97 62.6908 136.97ZM62.6908 137.645C62.0728 137.645 61.5838 137.855 61.2238 138.275C60.8698 138.695 60.6928 139.28 60.6928 140.03C60.6928 140.774 60.8698 141.359 61.2238 141.785C61.5838 142.205 62.0728 142.415 62.6908 142.415C63.3088 142.415 63.7948 142.205 64.1488 141.785C64.5088 141.359 64.6888 140.774 64.6888 140.03C64.6888 139.28 64.5088 138.695 64.1488 138.275C63.7948 137.855 63.3088 137.645 62.6908 137.645ZM74.3912 137.06V143H73.5002L71.0162 139.022L70.3862 137.906H70.3772L70.4132 138.806V143H69.7292V137.06H70.6202L73.0952 141.02L73.7342 142.163H73.7432L73.7072 141.254V137.06H74.3912ZM79.0386 143V137.06H83.2056V137.735H79.7586V139.652H82.4406V140.327H79.7586V142.325H83.3406V143H79.0386ZM89.3949 137.06C90.3249 137.06 91.0539 137.318 91.5819 137.834C92.1159 138.344 92.3829 139.076 92.3829 140.03C92.3829 140.984 92.1159 141.719 91.5819 142.235C91.0539 142.745 90.3249 143 89.3949 143H87.4779V137.06H89.3949ZM89.4669 142.325C90.1449 142.325 90.6729 142.124 91.0509 141.722C91.4349 141.314 91.6269 140.75 91.6269 140.03C91.6269 139.31 91.4349 138.749 91.0509 138.347C90.6729 137.939 90.1449 137.735 89.4669 137.735H88.1979V142.325H89.4669ZM96.6642 143V137.06H100.831V137.735H97.3842V139.652H100.066V140.327H97.3842V142.325H100.966V143H96.6642ZM105.823 142.325H109.225V143H105.103V137.06H105.823V142.325ZM113.902 137.06V143H113.182V137.06H113.902ZM123.153 137.06L120.903 143H120.084L117.825 137.06H118.599L120.111 141.164L120.489 142.343L120.867 141.173L122.379 137.06H123.153ZM127.081 143V137.06H131.248V137.735H127.801V139.652H130.483V140.327H127.801V142.325H131.383V143H127.081ZM137.771 137.06C138.377 137.06 138.863 137.216 139.229 137.528C139.595 137.84 139.778 138.263 139.778 138.797C139.778 139.223 139.658 139.574 139.418 139.85C139.178 140.126 138.854 140.315 138.446 140.417L140.138 143H139.283L137.663 140.534H136.241V143H135.521V137.06H137.771ZM137.762 139.859C138.602 139.859 139.022 139.505 139.022 138.797C139.022 138.089 138.602 137.735 137.762 137.735H136.241V139.859H137.762ZM144.206 143V137.06H148.373V137.735H144.926V139.652H147.608V140.327H144.926V142.325H148.508V143H144.206ZM154.562 137.06C155.492 137.06 156.221 137.318 156.749 137.834C157.283 138.344 157.55 139.076 157.55 140.03C157.55 140.984 157.283 141.719 156.749 142.235C156.221 142.745 155.492 143 154.562 143H152.645V137.06H154.562ZM154.634 142.325C155.312 142.325 155.84 142.124 156.218 141.722C156.602 141.314 156.794 140.75 156.794 140.03C156.794 139.31 156.602 138.749 156.218 138.347C155.84 137.939 155.312 137.735 154.634 137.735H153.365V142.325H154.634ZM172.387 141.479C172.201 141.989 171.895 142.385 171.469 142.667C171.043 142.949 170.551 143.09 169.993 143.09C169.429 143.09 168.94 142.967 168.526 142.721C168.118 142.469 167.8 142.115 167.572 141.659C167.35 141.203 167.239 140.66 167.239 140.03C167.239 139.4 167.35 138.857 167.572 138.401C167.8 137.945 168.118 137.594 168.526 137.348C168.94 137.096 169.423 136.97 169.975 136.97C170.551 136.97 171.031 137.09 171.415 137.33C171.805 137.564 172.093 137.906 172.279 138.356L171.568 138.689C171.436 138.347 171.244 138.089 170.992 137.915C170.746 137.735 170.425 137.645 170.029 137.645C169.627 137.645 169.273 137.741 168.967 137.933C168.661 138.119 168.421 138.389 168.247 138.743C168.079 139.097 167.995 139.526 167.995 140.03C167.995 140.774 168.172 141.359 168.526 141.785C168.886 142.205 169.375 142.415 169.993 142.415C170.389 142.415 170.734 142.316 171.028 142.118C171.322 141.914 171.535 141.611 171.667 141.209L172.387 141.479ZM178.863 136.97C179.427 136.97 179.913 137.096 180.321 137.348C180.735 137.594 181.053 137.945 181.275 138.401C181.503 138.857 181.617 139.4 181.617 140.03C181.617 140.66 181.503 141.203 181.275 141.659C181.053 142.115 180.735 142.469 180.321 142.721C179.913 142.967 179.427 143.09 178.863 143.09C178.299 143.09 177.81 142.967 177.396 142.721C176.988 142.469 176.67 142.115 176.442 141.659C176.22 141.203 176.109 140.66 176.109 140.03C176.109 139.4 176.22 138.857 176.442 138.401C176.67 137.945 176.988 137.594 177.396 137.348C177.81 137.096 178.299 136.97 178.863 136.97ZM178.863 137.645C178.245 137.645 177.756 137.855 177.396 138.275C177.042 138.695 176.865 139.28 176.865 140.03C176.865 140.774 177.042 141.359 177.396 141.785C177.756 142.205 178.245 142.415 178.863 142.415C179.481 142.415 179.967 142.205 180.321 141.785C180.681 141.359 180.861 140.774 180.861 140.03C180.861 139.28 180.681 138.695 180.321 138.275C179.967 137.855 179.481 137.645 178.863 137.645ZM190.059 137.735H186.621V139.652H189.303V140.327H186.621V143H185.901V137.06H190.059V137.735ZM198.252 137.735H194.814V139.652H197.496V140.327H194.814V143H194.094V137.06H198.252V137.735ZM202.288 143V137.06H206.455V137.735H203.008V139.652H205.69V140.327H203.008V142.325H206.59V143H202.288ZM210.727 143V137.06H214.894V137.735H211.447V139.652H214.129V140.327H211.447V142.325H215.029V143H210.727Z" fill="white"/>
<path d="M60.4626 117L48.1146 117L48.1146 115.992L51.5166 115.614L47.6526 105.954L38.2026 105.954L34.8426 114.9L38.5806 115.992L38.5806 117L29.8026 117L29.8026 115.992L32.9946 114.9L43.1586 88.944L46.0986 88.944L57.2286 115.614L60.4626 115.992L60.4626 117ZM47.0226 104.4L42.9066 94.194L38.7906 104.4L47.0226 104.4ZM73.4636 117L60.5696 117L60.5696 115.992L64.2236 115.614L64.2236 90.33L60.5696 89.952L60.5696 88.944L73.4636 88.944L73.4636 89.952L69.8096 90.33L69.8096 115.614L73.4636 115.992L73.4636 117ZM85.3095 102.342L86.7375 102.342C91.2175 102.342 93.4575 100.2 93.4575 95.916C93.4575 93.844 93.0235 92.346 92.1555 91.422C91.2875 90.47 89.9155 89.994 88.0395 89.994C86.8355 89.994 85.9255 90.05 85.3095 90.162L85.3095 102.342ZM84.5955 88.86L89.2995 88.734C95.9635 88.734 99.2955 91.128 99.2955 95.916C99.2955 98.044 98.5395 99.78 97.0275 101.124C95.5155 102.468 93.5695 103.14 91.1895 103.14L90.2235 103.14C93.4155 103.56 95.5995 104.526 96.7755 106.038C97.9795 107.55 98.5815 109.846 98.5815 112.926C98.5815 114.83 98.9735 115.992 99.7575 116.412C100.038 116.58 100.444 116.664 100.976 116.664C101.536 116.664 102.292 116.44 103.244 115.992L103.286 117C101.774 117.644 100.234 117.966 98.6655 117.966C95.5295 117.966 93.6395 116.79 92.9955 114.438C92.7715 113.458 92.6595 112.24 92.6595 110.784C92.6595 109.3 92.5615 108.166 92.3655 107.382C92.1975 106.57 91.9315 105.912 91.5675 105.408C90.7555 104.176 89.2295 103.56 86.9895 103.56L85.3095 103.56L85.3095 115.614L88.5015 115.992L88.5015 117L76.6575 117L76.6575 115.992L79.7655 115.656L79.7655 90.246L76.1535 89.742L76.1535 88.692C78.5055 88.804 80.6195 88.86 82.4955 88.86L84.5955 88.86ZM126.07 88.944C132.762 88.944 136.108 91.142 136.108 95.538C136.108 97.33 135.534 98.828 134.386 100.032C133.238 101.208 131.572 101.922 129.388 102.174C132.216 102.706 134.274 103.532 135.562 104.652C136.85 105.772 137.494 107.354 137.494 109.398C137.494 111.974 136.402 113.892 134.218 115.152C132.034 116.384 129.192 117 125.692 117L114.31 117L114.31 115.992L117.376 115.572L117.376 90.33L113.806 89.91L113.806 88.944L126.07 88.944ZM124.138 103.014L123.046 103.056L123.046 115.824C123.578 115.964 124.194 116.034 124.894 116.034C126.826 116.034 128.45 115.502 129.766 114.438C131.082 113.346 131.74 111.554 131.74 109.062C131.74 105.898 130.368 104.008 127.624 103.392C126.504 103.14 125.342 103.014 124.138 103.014ZM123.046 90.078L123.046 101.838L124.054 101.838C126.014 101.838 127.54 101.306 128.632 100.242C129.724 99.178 130.27 97.638 130.27 95.622C130.27 93.578 129.85 92.15 129.01 91.338C128.17 90.498 126.826 90.078 124.978 90.078L123.046 90.078ZM140.386 117L140.386 115.992L144.04 115.614L144.04 90.33L140.386 89.952L140.386 88.944L161.806 88.944L161.806 94.908L160.462 94.908L158.824 90.456L149.626 90.33L149.626 101.628L157.774 101.628L159.076 98.52L160.252 98.52L160.252 106.332L159.034 106.332L157.774 103.14L149.626 103.14L149.626 115.656L160.084 115.53L162.268 110.742L163.612 110.742L163.108 117L140.386 117ZM194.912 117L182.564 117L182.564 115.992L185.966 115.614L182.102 105.954L172.652 105.954L169.292 114.9L173.03 115.992L173.03 117L164.252 117L164.252 115.992L167.444 114.9L177.608 88.944L180.548 88.944L191.678 115.614L194.912 115.992L194.912 117ZM181.472 104.4L177.356 94.194L173.24 104.4L181.472 104.4ZM216.397 88.944L224.881 88.944L224.881 89.952L221.941 90.96L221.941 117L219.085 117L200.395 93.984L200.395 114.942L203.923 115.992L203.923 117L195.523 117L195.523 115.992L198.589 114.942L198.589 90.33L194.935 89.952L194.935 88.944L202.831 88.944L219.631 109.86L219.631 90.918L216.397 89.952L216.397 88.944Z" fill="white"/>
<circle cx="128" cy="32" r="32" fill="white" fill-opacity="0.1"/>
<path d="M146.738 45.0653C143.28 35.3804 139.771 25.7154 136.265 16.0465C135.756 14.6521 134.791 13.9729 133.233 14.0008C129.727 14.0648 126.218 14.0528 122.712 14.0048C121.162 13.9848 120.252 14.692 119.739 16.1144C116.266 25.7194 112.76 35.3085 109.306 44.9215C108.408 47.4186 109.521 48.9369 112.184 48.9689C115.296 49.0088 118.404 48.9769 121.516 48.9769C122.45 48.9769 123.408 49.0208 123.904 47.974C124.37 47.0071 123.742 46.3359 123.261 45.6287C121.432 42.9478 120.327 40.0071 120.037 36.7548C119.91 35.3045 120.53 34.6213 121.941 34.6173C123.924 34.6093 125.912 34.6173 127.895 34.6173C127.895 34.6133 127.895 34.6093 127.895 34.6093C129.815 34.6093 131.734 34.5813 133.65 34.6173C135.713 34.6532 136.229 35.2685 135.927 37.3541C135.482 40.4266 134.361 43.2354 132.621 45.8085C131.373 47.6584 131.969 48.9249 134.131 48.9569C137.438 49.0128 140.748 49.0208 144.055 48.9449C146.448 48.889 147.545 47.3228 146.738 45.0653ZM130.291 25.4717C129.346 26.6064 128.59 27.7651 128.253 29.2514C127.939 30.6378 127.064 30.6698 126.09 29.7348C124.397 28.1007 124.199 25.0802 125.765 22.9985C126.643 21.8319 127.462 20.7251 127.756 19.2029C127.994 17.9843 128.936 17.8684 129.815 18.7634C130.78 19.7383 131.313 20.9249 131.293 22.4432C131.377 23.51 131.027 24.5967 130.291 25.4717Z" fill="white"/>
</svg>
